<svg xmlns="http://www.w3.org/2000/svg" width="24" height="24" viewBox="138 45 24 24"><path fill="#C61F48" d="M148.425 54.942l.265 4.494a.481.481 0 0 0 .48.453h1.66a.481.481 0 0 0 .48-.453l.264-4.494a.48.48 0 0 0-.48-.51h-2.188a.482.482 0 0 0-.481.51z"/><circle fill="#C61F48" cx="150" cy="62.136" r="1.685"/><path fill="#C61F48" stroke="#C61F48" stroke-width=".5" stroke-linecap="round" stroke-linejoin="round" stroke-miterlimit="10" d="M151.668 47.691c-.739-1.282-2.595-1.284-3.336 0l-9.626 16.691c-.739 1.281.187 2.888 1.668 2.888h19.253c1.479 0 2.408-1.604 1.667-2.888l-9.626-16.691zM140.58 64.983l9.212-15.967a.241.241 0 0 1 .417 0l9.211 15.967a.24.24 0 0 1-.208.361h-18.424a.24.24 0 0 1-.208-.361z"/></svg>